<?xml version="1.0" standalone="no"?>
<!DOCTYPE svg PUBLIC "-//W3C//DTD SVG 20010904//EN"
 "http://www.w3.org/TR/2001/REC-SVG-20010904/DTD/svg10.dtd">
<svg version="1.0" xmlns="http://www.w3.org/2000/svg"
 width="300.000000pt" height="300.000000pt" viewBox="0 0 300.000000 300.000000"
 preserveAspectRatio="xMidYMid meet">
<metadata>
Created by potrace 1.14, written by Peter Selinger 2001-2017
</metadata>
<g transform="translate(0.000000,300.000000) scale(0.100000,-0.100000)"
fill="#000000" stroke="none">
<path d="M1110 2664 c-15 -18 -31 -42 -35 -53 -3 -12 -11 -21 -16 -21 -5 0
-61 16 -125 35 -63 19 -122 35 -130 35 -18 0 -79 -83 -65 -88 15 -5 14 -29 -1
-35 -7 -2 -29 8 -48 23 -19 15 -51 33 -70 40 -19 7 -41 18 -49 24 -10 8 -15 8
-18 0 -3 -9 -16 -8 -50 2 -54 16 -67 11 -58 -25 5 -21 4 -24 -6 -13 -24 23
-41 15 -34 -17 5 -24 2 -29 -17 -34 l-22 -6 23 -25 c12 -13 23 -30 25 -37 1
-8 7 -24 14 -36 9 -17 9 -22 -1 -26 -6 -2 8 -13 33 -25 38 -17 41 -20 20 -21
-14 -1 -39 3 -56 8 -21 6 -36 5 -49 -5 -12 -9 -21 -10 -25 -4 -4 6 -13 -7 -20
-29 -13 -39 -12 -41 17 -71 45 -46 61 -79 43 -90 -11 -7 -8 -11 13 -19 30 -12
33 -21 15 -39 -9 -9 -9 -12 3 -12 45 0 305 -153 293 -172 -4 -6 -9 -7 -13 -1
-3 6 -66 40 -139 76 -74 37 -154 80 -178 96 l-44 30 -9 -37 c-5 -20 -15 -57
-21 -82 -6 -25 -18 -55 -26 -67 -12 -19 -12 -27 -2 -43 11 -18 10 -23 -5 -35
-12 -8 -14 -15 -8 -20 17 -10 14 -45 -3 -39 -26 10 -26 -14 -1 -30 34 -22 31
-32 -7 -34 -18 0 -59 -3 -91 -5 -44 -3 -57 -1 -53 8 7 19 -27 13 -42 -7 -10
-14 -10 -23 -1 -39 30 -57 29 -129 -2 -129 -7 0 -20 -7 -30 -16 -15 -14 -15
-19 -3 -42 10 -19 10 -28 2 -33 -8 -5 -5 -20 9 -51 26 -56 48 -120 44 -132 -4
-15 128 -144 191 -187 32 -22 58 -36 58 -31 0 5 -7 15 -15 22 -32 26 -13 29
34 6 48 -25 261 -181 311 -227 14 -13 44 -36 68 -51 23 -16 59 -39 80 -53 21
-14 42 -25 48 -25 16 0 184 -113 272 -183 45 -36 91 -69 102 -72 11 -4 20 -10
20 -14 0 -11 93 -59 106 -54 6 2 37 -12 70 -32 32 -19 65 -33 72 -30 8 3 34
-10 59 -27 29 -21 48 -29 50 -21 5 15 58 7 105 -17 23 -12 40 -16 43 -9 4 5
16 7 27 3 11 -3 24 -1 27 5 5 8 16 7 39 -4 43 -22 94 -21 183 3 84 23 108 21
200 -21 89 -39 127 -42 190 -14 58 25 77 42 82 73 2 10 9 29 16 42 8 15 9 27
3 35 -16 19 -18 53 -4 70 8 9 9 18 3 21 -5 4 -12 2 -16 -4 -3 -5 -24 11 -45
35 -34 39 -38 49 -28 64 9 15 17 17 35 10 39 -15 63 -29 85 -51 34 -34 107
-60 182 -65 l72 -5 29 38 c16 22 36 47 44 56 8 9 16 23 17 30 1 7 9 30 18 50
9 20 13 43 11 51 -5 12 -63 49 -180 113 -82 44 -195 124 -195 137 0 2 29 7 63
10 35 3 77 12 93 19 42 18 86 56 74 63 -6 4 -8 16 -4 28 3 12 3 19 -2 14 -9
-9 -36 63 -29 80 2 6 -3 17 -10 23 -8 7 -12 16 -9 21 2 5 -22 35 -56 68 -33
33 -60 65 -60 71 0 7 9 23 20 37 12 16 20 41 20 65 0 24 8 50 21 68 15 20 22
46 24 87 3 64 -11 101 -47 125 -13 9 -36 28 -53 42 -34 30 -90 76 -250 202
-136 108 -185 151 -178 157 2 3 71 -27 151 -67 81 -40 168 -81 195 -91 l47
-18 25 29 c14 16 25 34 25 40 0 17 -72 79 -148 129 -179 115 -691 370 -894
444 -67 24 -233 74 -233 70 0 0 -16 2 -35 5 -19 4 -66 8 -103 10 -66 3 -69 2
-97 -30z m-497 -859 c42 -6 48 -10 45 -29 -4 -27 -28 -23 -93 16 -33 19 -42
28 -25 24 14 -2 47 -8 73 -11z m-513 -245 c0 -5 -7 -10 -16 -10 -8 0 -12 5 -9
10 3 6 10 10 16 10 5 0 9 -4 9 -10z m710 -73 c0 3 -8 11 -17 18 -15 12 -14 12
10 8 20 -4 26 -10 23 -22 -3 -9 -8 -28 -11 -43 -7 -28 -29 -29 -39 -1 -5 11
-2 13 9 9 9 -3 13 -2 10 4 -3 6 -12 10 -18 10 -7 0 -25 11 -42 25 l-30 25 53
-20 c28 -11 52 -17 52 -13z m170 -88 c0 -11 -4 -17 -10 -14 -5 3 -8 0 -5 -7 2
-7 -7 -22 -22 -32 l-26 -19 7 29 c4 16 13 32 19 36 7 4 8 8 2 9 -8 0 15 13 33
18 1 1 2 -8 2 -20z m-396 -374 c19 -17 32 -22 36 -14 6 9 119 -47 211 -104 28
-17 23 -28 -7 -16 -47 17 -37 2 28 -41 35 -23 52 -38 38 -35 -33 10 -91 39
-136 70 -38 26 -39 34 -1 13 19 -10 20 -9 10 3 -15 19 -98 66 -89 51 5 -8 2
-10 -8 -6 -9 3 -16 10 -16 14 0 5 -33 26 -72 48 -40 22 -89 55 -108 72 l-35
31 60 -30 c33 -17 73 -43 89 -56z m-64 70 c11 -13 10 -14 -4 -9 -9 3 -16 10
-16 15 0 13 6 11 20 -6z m356 -116 c4 -8 3 -9 -4 -5 -7 4 -12 4 -12 1 0 -3 19
-15 43 -25 45 -20 90 -60 68 -60 -16 0 -51 18 -74 38 -10 9 -30 18 -43 20 -37
4 -113 56 -90 60 9 2 28 -4 41 -12 31 -21 33 -4 3 18 -16 11 -10 10 19 -4 23
-11 45 -25 49 -31z m149 -165 c25 -16 33 -34 16 -34 -6 0 -23 11 -38 25 -31
27 -16 34 22 9z"/>
<path d="M2775 1140 c-3 -5 -1 -10 4 -10 6 0 11 5 11 10 0 6 -2 10 -4 10 -3 0
-8 -4 -11 -10z"/>
<path d="M175 1115 c22 -19 115 -68 115 -61 0 4 -109 69 -125 74 -5 2 -1 -4
10 -13z"/>
<path d="M260 1101 c0 -5 7 -12 16 -15 14 -5 15 -4 4 9 -14 17 -20 19 -20 6z"/>
<path d="M325 1025 c26 -22 88 -55 103 -55 3 0 -3 9 -12 19 -10 11 -23 18 -30
15 -6 -2 -27 7 -46 21 -44 32 -54 32 -15 0z"/>
<path d="M445 960 c3 -5 11 -10 16 -10 6 0 7 5 4 10 -3 6 -11 10 -16 10 -6 0
-7 -4 -4 -10z"/>
</g>
</svg>
